<svg width="72" height="72" viewBox="0 0 72 72" fill="none" xmlns="http://www.w3.org/2000/svg">
<path d="M0 25.0839C3.40203 25.6413 10.6413 25.0845 15.1322 18.659C15.2425 18.5012 15.3523 18.3438 15.4618 18.1867L15.8864 17.5774C21.1915 9.95975 25.8309 3.29793 36.8164 0H31.6002C26.7552 3.24966 19.4202 8.73872 16.5684 12.986C12.4535 19.1146 7.7395 23.9593 0 22.7511V25.0839Z" fill="#312626"/>
<path d="M0 35.8658V47.35C3.34143 46.7982 9.85728 44.9449 14.5981 40.9284C17.801 38.2149 21.9319 38.8156 26.892 39.5371C31.9179 40.2681 37.7952 41.1228 44.4212 38.779C50.6148 36.588 54.4298 30.611 58.0483 24.942C61.9169 18.881 65.561 13.1719 71.6471 12.8175V0H58.1403C55.6169 5.11517 48.86 15.5038 40.6564 18.659C35.9892 20.4541 31.8373 20.8811 28.1373 21.2616C23.5304 21.7352 19.6242 22.1369 16.2964 25.0177C14.6535 26.44 13.2993 27.9227 12.0242 29.3187C8.70893 32.9483 5.92864 35.9922 0 35.8658Z" fill="#312626"/>
<path d="M6.40352 71.6471H4.70704C6.24281 65.965 10.9456 55.3942 18.7178 54.6309C28.7484 53.6457 41.5553 49.4365 49.4365 44.7794C54.9487 41.5222 65.3805 40.8114 71.6471 40.8637V44.3257C66.8816 42.3654 59.8185 43.8466 55.3815 44.7771C54.2447 45.0155 53.2803 45.2178 52.571 45.3168C51.1597 45.5137 49.5318 46.5286 47.4758 47.8104C43.9218 50.0261 39.0885 53.0395 31.8829 54.004C24.4417 55 21.9071 56.5328 19.4389 58.0254C18.1345 58.8143 16.8486 59.5919 14.8668 60.2731C10.6803 61.7121 7.66839 67.9389 6.40352 71.6471Z" fill="#312626"/>
<path d="M11.1339 71.6471H40.7867C41.0063 68.0338 48.3099 62.3711 54.2726 58.1237C59.4605 54.4282 67.9555 53.8344 71.6471 53.9998V46.7644C69.7517 45.6634 67.0417 44.6479 64.5719 45.3168C63.277 45.6675 58.9955 46.5512 57.1385 46.7644C52.8308 47.2592 50.3007 47.1577 47.7348 49.9738C44.0629 54.004 35.8235 56.0638 29.3753 56.7803C22.9271 57.4968 14.5085 61.5269 13.5234 64.8406C12.8757 67.0192 11.8206 69.8714 11.1339 71.6471Z" fill="#312626"/>
<path d="M71.6471 63.4163C67.7062 63.8577 65.5738 68.4731 64.784 71.6471H71.6471V63.4163Z" fill="#312626"/>
<path d="M0 0H16.2843C12.673 4.36074 4.30192 7.68422 0 8.97783V0Z" fill="#312626"/>
</svg>
