<svg xmlns="http://www.w3.org/2000/svg" width="211" height="36" viewBox="0 0 211 36" fill="none">
  <path d="M0.689636 34.6721V1.15826H14.6778C19.1572 1.15826 22.7 1.93212 25.3063 3.47982C27.9125 5.02754 29.2156 7.62689 29.2156 11.2779C29.2156 14.294 28.5233 16.6354 27.1388 18.3021C25.7949 19.9689 23.9624 20.8023 21.6413 20.8023C22.7815 20.8023 23.6367 21.0602 24.2068 21.5761C24.8176 22.0523 25.2452 22.6873 25.4895 23.481C25.7746 24.235 25.9986 25.0089 26.1614 25.8026C26.3243 26.5963 26.5483 27.3106 26.8334 27.9455C27.1184 28.5408 27.5664 28.9377 28.1772 29.1361C28.8288 29.2948 29.745 29.1361 30.926 28.6599V33.184C29.7857 34.1364 28.5233 34.7515 27.1388 35.0293C25.7542 35.3468 24.4307 35.2674 23.1684 34.7912C21.9467 34.3547 20.9286 33.5014 20.1142 32.2315C19.2997 30.9219 18.8925 29.1559 18.8925 26.9336C18.8925 25.9811 18.8111 25.1279 18.6482 24.3739C18.526 23.5802 18.1595 22.9254 17.5487 22.4095C16.9378 21.8936 15.9809 21.5563 14.6778 21.3975C13.3746 21.1991 11.5625 21.1991 9.24132 21.3975V34.6721H0.689636ZM9.24132 15.5639H13.5172C15.3904 15.5639 16.9175 15.544 18.0984 15.5043C19.2794 15.4647 20.1549 15.2067 20.725 14.7305C21.3358 14.2146 21.6413 13.3018 21.6413 11.9922C21.6413 10.5239 21.2748 9.51193 20.5418 8.95634C19.8495 8.36106 18.8111 8.02374 17.4265 7.94437C16.0827 7.865 14.4131 7.82532 12.4177 7.82532H9.24132V15.5639Z" fill="#312626"/>
  <path d="M44.372 28.0646H62.697V34.6721H36.0035V1.15826H62.0251V8.24201H44.372V14.3733H57.5049V21.0404H44.372V28.0646Z" fill="#312626"/>
  <path d="M91.1275 1.15826H100.046V34.6721H83.6753L77.2616 4.78943H77.1394V34.6721H68.2823V1.15826H83.431L91.0054 31.041H91.1275V1.15826Z" fill="#312626"/>
  <path d="M121.845 35.5055C116.144 35.5055 111.787 33.938 108.773 30.8029C105.76 27.6281 104.253 23.3619 104.253 18.0045C104.253 14.4725 104.905 11.4168 106.208 8.83728C107.511 6.21808 109.466 4.19415 112.072 2.7655C114.678 1.29716 117.936 0.562988 121.845 0.562988C127.546 0.562988 131.883 2.15038 134.856 5.32517C137.829 8.46028 139.315 12.6867 139.315 18.0045C139.315 21.4571 138.643 24.5128 137.299 27.1717C135.996 29.7909 134.042 31.8347 131.435 33.303C128.87 34.7713 125.673 35.5055 121.845 35.5055ZM121.723 27.4693C123.8 27.4693 125.51 27.0526 126.854 26.2193C128.239 25.3462 129.257 24.1953 129.908 22.7667C130.601 21.2983 130.947 19.7109 130.947 18.0045C130.947 16.2584 130.601 14.6511 129.908 13.1828C129.257 11.7144 128.239 10.5437 126.854 9.67067C125.51 8.7976 123.8 8.36106 121.723 8.36106C118.75 8.36106 116.47 9.27382 114.882 11.0993C113.334 12.9248 112.561 15.2265 112.561 18.0045C112.561 19.6713 112.886 21.2388 113.538 22.7071C114.23 24.1358 115.248 25.2867 116.592 26.1597C117.936 27.0328 119.646 27.4693 121.723 27.4693Z" fill="#312626"/>
  <path d="M167.62 1.15826H176.966L166.337 34.6721H152.166L141.537 1.15826H150.883L159.19 31.2791L167.62 1.15826Z" fill="#312626"/>
  <path d="M176.199 34.6721L186.095 1.15826H200.083L210.345 34.6721H201.243L198.983 26.2788H187.561L185.362 34.6721H176.199ZM193.241 4.61085L189.21 19.9689H197.334L193.241 4.61085Z" fill="#312626"/>
</svg>