<svg width="33" height="31" viewBox="0 0 33 31" fill="none" xmlns="http://www.w3.org/2000/svg">
<g filter="url(#filter0_b_368_2689)">
<path d="M16.5 31L14.1075 28.77C5.61 20.8807 0 15.6605 0 9.29155C0 4.07139 3.993 0 9.075 0C11.946 0 14.7015 1.36839 16.5 3.5139C18.2985 1.36839 21.054 0 23.925 0C29.007 0 33 4.07139 33 9.29155C33 15.6605 27.39 20.8807 18.8925 28.77L16.5 31Z" fill="#D9D9D9" fill-opacity="0.01"/>
<path d="M15.1302 27.6728L15.1281 27.6708C10.8504 23.6992 7.41897 20.5054 5.03945 17.5248C2.67742 14.566 1.5 11.9943 1.5 9.29155C1.5 4.86808 4.85281 1.5 9.075 1.5C11.4792 1.5 13.8218 2.65388 15.3505 4.47751L16.5 5.84885L17.6495 4.47751C19.1782 2.65388 21.5208 1.5 23.925 1.5C28.1472 1.5 31.5 4.86808 31.5 9.29155C31.5 11.9943 30.3226 14.566 27.9606 17.5248C25.581 20.5054 22.1496 23.6992 17.8719 27.6708L17.8698 27.6728L16.5 28.9495L15.1302 27.6728Z" stroke="#B28A87" stroke-width="3"/>
</g>
<defs>
<filter id="filter0_b_368_2689" x="-8" y="-8" width="49" height="47" filterUnits="userSpaceOnUse" color-interpolation-filters="sRGB">
<feFlood flood-opacity="0" result="BackgroundImageFix"/>
<feGaussianBlur in="BackgroundImageFix" stdDeviation="4"/>
<feComposite in2="SourceAlpha" operator="in" result="effect1_backgroundBlur_368_2689"/>
<feBlend mode="normal" in="SourceGraphic" in2="effect1_backgroundBlur_368_2689" result="shape"/>
</filter>
</defs>
</svg>
