<svg width="40" height="40" viewBox="0 0 40 40" fill="none" xmlns="http://www.w3.org/2000/svg">
<path d="M22.0561 0.00199921C23.5155 -0.00360123 24.975 0.011067 26.4341 0.0459994L26.8221 0.0599993C27.2701 0.0759993 27.7121 0.0959992 28.2461 0.119999C30.3741 0.219999 31.8261 0.556 33.1001 1.05C34.4201 1.558 35.5321 2.246 36.6441 3.358C37.6608 4.35721 38.4477 5.56589 38.9501 6.9C39.4441 8.174 39.7801 9.628 39.8801 11.756C39.9041 12.288 39.9241 12.732 39.9401 13.18L39.9521 13.568C39.9876 15.0264 40.0029 16.4852 39.9981 17.944L40.0001 19.436V22.056C40.005 23.5155 39.9897 24.975 39.9541 26.434L39.9421 26.822C39.9261 27.27 39.9061 27.712 39.8821 28.246C39.7821 30.374 39.4421 31.826 38.9501 33.1C38.4494 34.4355 37.6623 35.6452 36.6441 36.644C35.644 37.6606 34.4347 38.4475 33.1001 38.95C31.8261 39.444 30.3741 39.78 28.2461 39.88C27.7121 39.904 27.2701 39.924 26.8221 39.94L26.4341 39.952C24.975 39.9876 23.5155 40.0029 22.0561 39.998L20.5641 40H17.9461C16.4866 40.0049 15.0271 39.9896 13.5681 39.954L13.1801 39.942C12.7053 39.9248 12.2306 39.9048 11.7561 39.882C9.62805 39.782 8.17605 39.442 6.90005 38.95C5.56542 38.4487 4.35653 37.6616 3.35806 36.644C2.34015 35.6446 1.5525 34.4351 1.05006 33.1C0.556056 31.826 0.220055 30.374 0.120055 28.246C0.0977811 27.7714 0.0777809 27.2968 0.0600553 26.822L0.0500556 26.434C0.0131827 24.975 -0.00348573 23.5155 5.53686e-05 22.056V17.944C-0.00552656 16.4852 0.00914166 15.0264 0.0440555 13.568L0.0580555 13.18C0.0740555 12.732 0.0940554 12.288 0.118055 11.756C0.218055 9.626 0.554055 8.176 1.04806 6.9C1.5508 5.56524 2.33998 4.35689 3.36006 3.36C4.35784 2.3415 5.56598 1.55314 6.90005 1.05C8.17605 0.556 9.62605 0.219999 11.7561 0.119999L13.1801 0.0599993L13.5681 0.0499995C15.0264 0.0131452 16.4852 -0.00352328 17.9441 -6.42525e-07L22.0561 0.00199921ZM20.0001 10.002C18.6751 9.98326 17.3596 10.228 16.13 10.7221C14.9004 11.2162 13.7813 11.9498 12.8377 12.8801C11.8941 13.8105 11.1449 14.9191 10.6334 16.1415C10.122 17.364 9.85864 18.6759 9.85864 20.001C9.85864 21.3261 10.122 22.638 10.6334 23.8605C11.1449 25.0829 11.8941 26.1915 12.8377 27.1219C13.7813 28.0522 14.9004 28.7858 16.13 29.2799C17.3596 29.774 18.6751 30.0187 20.0001 30C22.6522 30 25.1958 28.9464 27.0711 27.0711C28.9465 25.1957 30.0001 22.6522 30.0001 20C30.0001 17.3478 28.9465 14.8043 27.0711 12.9289C25.1958 11.0536 22.6522 10.002 20.0001 10.002ZM20.0001 14.002C20.7971 13.9873 21.589 14.1316 22.3296 14.4264C23.0703 14.7212 23.7447 15.1607 24.3136 15.7191C24.8825 16.2775 25.3344 16.9437 25.6429 17.6787C25.9515 18.4137 26.1105 19.2028 26.1106 20C26.1107 20.7971 25.952 21.5863 25.6437 22.3214C25.3354 23.0566 24.8837 23.7229 24.315 24.2815C23.7463 24.8401 23.072 25.2797 22.3315 25.5748C21.591 25.8699 20.7991 26.0144 20.0021 26C18.4108 26 16.8846 25.3679 15.7594 24.2426C14.6342 23.1174 14.0021 21.5913 14.0021 20C14.0021 18.4087 14.6342 16.8826 15.7594 15.7574C16.8846 14.6321 18.4108 14 20.0021 14L20.0001 14.002ZM30.5001 7.002C29.8548 7.02782 29.2446 7.3023 28.7973 7.76794C28.3499 8.23358 28.1 8.85427 28.1 9.5C28.1 10.1457 28.3499 10.7664 28.7973 11.2321C29.2446 11.6977 29.8548 11.9722 30.5001 11.998C31.1631 11.998 31.799 11.7346 32.2678 11.2658C32.7367 10.7969 33.0001 10.161 33.0001 9.498C33.0001 8.83496 32.7367 8.19907 32.2678 7.73023C31.799 7.26139 31.1631 6.998 30.5001 6.998V7.002Z" fill="#F9F3F2"/>
</svg>
