<svg width="32" height="32" viewBox="0 0 32 32" fill="none" xmlns="http://www.w3.org/2000/svg">
<path d="M15.9998 15.3334C15.1158 15.3334 14.2679 14.9822 13.6428 14.3571C13.0177 13.732 12.6665 12.8841 12.6665 12.0001C12.6665 11.116 13.0177 10.2682 13.6428 9.64306C14.2679 9.01794 15.1158 8.66675 15.9998 8.66675C16.8839 8.66675 17.7317 9.01794 18.3569 9.64306C18.982 10.2682 19.3332 11.116 19.3332 12.0001C19.3332 12.4378 19.247 12.8713 19.0794 13.2757C18.9119 13.6801 18.6664 14.0476 18.3569 14.3571C18.0473 14.6666 17.6799 14.9122 17.2754 15.0797C16.871 15.2472 16.4376 15.3334 15.9998 15.3334ZM15.9998 2.66675C13.5245 2.66675 11.1505 3.65008 9.40017 5.40042C7.64983 7.15076 6.6665 9.52473 6.6665 12.0001C6.6665 19.0001 15.9998 29.3334 15.9998 29.3334C15.9998 29.3334 25.3332 19.0001 25.3332 12.0001C25.3332 9.52473 24.3498 7.15076 22.5995 5.40042C20.8492 3.65008 18.4752 2.66675 15.9998 2.66675Z" fill="#C85048"/>
</svg>
