<svg width="40" height="40" viewBox="0 0 40 40" fill="none" xmlns="http://www.w3.org/2000/svg">
<path d="M14.08 39.08C16 39.66 17.94 40 20 40C25.3043 40 30.3914 37.8929 34.1421 34.1421C37.8929 30.3914 40 25.3043 40 20C40 17.3736 39.4827 14.7728 38.4776 12.3463C37.4725 9.91982 35.9993 7.71504 34.1421 5.85786C32.285 4.00069 30.0802 2.5275 27.6537 1.52241C25.2272 0.517315 22.6264 0 20 0C17.3736 0 14.7728 0.517315 12.3463 1.52241C9.91982 2.5275 7.71504 4.00069 5.85786 5.85786C2.10714 9.60859 0 14.6957 0 20C0 28.5 5.34 35.8 12.88 38.68C12.7 37.12 12.52 34.54 12.88 32.76L15.18 22.88C15.18 22.88 14.6 21.72 14.6 19.88C14.6 17.12 16.32 15.06 18.28 15.06C20 15.06 20.8 16.32 20.8 17.94C20.8 19.66 19.66 22.12 19.08 24.48C18.74 26.44 20.12 28.16 22.12 28.16C25.68 28.16 28.44 24.36 28.44 19C28.44 14.2 25 10.92 20.06 10.92C14.42 10.92 11.1 15.12 11.1 19.54C11.1 21.26 11.66 23 12.58 24.14C12.76 24.26 12.76 24.42 12.7 24.72L12.12 26.9C12.12 27.24 11.9 27.36 11.56 27.12C9 26 7.52 22.36 7.52 19.42C7.52 13.1 12 7.36 20.64 7.36C27.52 7.36 32.88 12.3 32.88 18.86C32.88 25.74 28.62 31.26 22.52 31.26C20.58 31.26 18.68 30.22 18 29L16.66 33.74C16.2 35.46 14.94 37.76 14.08 39.14V39.08Z" fill="#F9F3F2"/>
</svg>
